<svg width="23" height="19" viewBox="0 0 23 19" fill="none" xmlns="http://www.w3.org/2000/svg">
<path d="M1.04545 1.32773L2.38364 0L19.8636 17.48L18.5359 18.8182L15.3159 15.5982C14.1136 15.9955 12.8382 16.2045 11.5 16.2045C6.27273 16.2045 1.80864 12.9532 0 8.36364C0.721364 6.52364 1.87136 4.90318 3.335 3.61727L1.04545 1.32773ZM11.5 5.22727C12.3318 5.22727 13.1296 5.55771 13.7177 6.14589C14.3059 6.73407 14.6364 7.53182 14.6364 8.36364C14.6369 8.71968 14.5768 9.07322 14.4586 9.40909L10.4545 5.405C10.7904 5.28685 11.144 5.22674 11.5 5.22727ZM11.5 0.522727C16.7273 0.522727 21.1914 3.77409 23 8.36364C22.1468 10.5311 20.6968 12.4124 18.8182 13.7895L17.3336 12.2945C18.7794 11.2944 19.9454 9.94129 20.7209 8.36364C19.8757 6.63857 18.5635 5.18521 16.9335 4.16876C15.3035 3.1523 13.421 2.61351 11.5 2.61364C10.3605 2.61364 9.24182 2.80182 8.19636 3.13636L6.58636 1.53682C8.09182 0.888636 9.75409 0.522727 11.5 0.522727ZM2.27909 8.36364C3.12428 10.0887 4.43646 11.5421 6.06649 12.5585C7.69652 13.575 9.57901 14.1138 11.5 14.1136C12.2214 14.1136 12.9323 14.0405 13.5909 13.8941L11.2073 11.5C10.4798 11.422 9.80095 11.0974 9.28361 10.58C8.76627 10.0627 8.44161 9.38383 8.36364 8.65636L4.80909 5.09136C3.77409 5.98 2.90636 7.08818 2.27909 8.36364Z" fill="#656B80"/>
</svg>
