<svg width="23" height="16" viewBox="0 0 23 16" fill="none" xmlns="http://www.w3.org/2000/svg">
<path d="M11.5 4.70455C12.3318 4.70455 13.1296 5.03498 13.7177 5.62317C14.3059 6.21135 14.6364 7.00909 14.6364 7.84091C14.6364 8.67272 14.3059 9.47047 13.7177 10.0587C13.1296 10.6468 12.3318 10.9773 11.5 10.9773C10.6682 10.9773 9.87044 10.6468 9.28226 10.0587C8.69407 9.47047 8.36364 8.67272 8.36364 7.84091C8.36364 7.00909 8.69407 6.21135 9.28226 5.62317C9.87044 5.03498 10.6682 4.70455 11.5 4.70455ZM11.5 0C16.7273 0 21.1914 3.25136 23 7.84091C21.1914 12.4305 16.7273 15.6818 11.5 15.6818C6.27273 15.6818 1.80864 12.4305 0 7.84091C1.80864 3.25136 6.27273 0 11.5 0ZM2.27909 7.84091C3.12408 9.56623 4.43618 11.0199 6.06623 12.0366C7.69627 13.0533 9.57887 13.5923 11.5 13.5923C13.4211 13.5923 15.3037 13.0533 16.9338 12.0366C18.5638 11.0199 19.8759 9.56623 20.7209 7.84091C19.8759 6.11559 18.5638 4.66195 16.9338 3.64523C15.3037 2.62852 13.4211 2.08953 11.5 2.08953C9.57887 2.08953 7.69627 2.62852 6.06623 3.64523C4.43618 4.66195 3.12408 6.11559 2.27909 7.84091Z" fill="#656B80"/>
</svg>
